<svg version="1.2" xmlns="http://www.w3.org/2000/svg" viewBox="0 0 500 500" width="200" height="200">
	<title>awardiconart-15-svg</title>
	<style>
		.s0 { fill: #2ffaff } 
	</style>
	<path id="Layer" fill-rule="evenodd" class="s0" d="m448.8 63.9c0 1.5 1.6 37.2-12.2 77.3-18.3 53.3-55.2 88.2-106.7 101.2-30.4 18-46.9 47.1-45.4 80.1 1.3 28.3 16.5 50.5 38.9 75.1 22.6 24.8 17.6 63.3 17.4 64.9-0.3 2.2-2.3 3.9-4.5 3.9h-172.4c-2.3 0-4.2-1.7-4.5-3.9-0.2-1.7-5.2-40.2 17.4-64.9 22.4-24.6 37.6-46.8 38.9-75.1 1.5-33-15-62.1-45.4-80.1-51.5-13-88.4-48-106.7-101.2-13.8-40.1-12.3-75.8-12.2-77.3 0.1-2.4 2.1-4.3 4.5-4.3h71.2c-1.2-18.4-1.7-30.7-1.7-30.9 0-1.2 0.4-2.4 1.3-3.3 0.9-0.9 2.1-1.4 3.3-1.4l120.1 1 120-1c1.2 0 2.4 0.5 3.2 1.4 0.9 0.9 1.3 2.1 1.3 3.3 0 0.2-0.5 12.5-1.7 30.9h71.2c2.4 0 4.4 1.8 4.7 4.3zm-290.5 165.4c-10.5-17.9-18.7-52-25-103.2-2.5-20.6-4.3-40.8-5.5-57.5h-67.4c0 10.5 1.2 39.2 11.8 69.9 7.7 22.4 18.9 41.4 33.2 56.6 14.4 15.4 32.2 26.9 52.9 34.2zm17.7 184.8c-8.5 16.2-8.6 35.2-8.1 43.2h164.1c0.5-8 0.5-27-8.1-43.2zm181.7-289.1c4.9-40 7-78.8 7.6-92l-115.3 1-115.4-1c0.6 13.1 2.7 51.9 7.6 92 10.4 84.8 24.6 104.8 32.1 109.2 17.6 10.2 30.9 23.8 39.6 40.2 7.8 14.8 11.6 31.5 10.8 48.4-1.4 31.1-17.6 54.8-41.3 80.8-0.4 0.5-0.9 1-1.3 1.5h135.9c-0.4-0.5-0.9-1-1.3-1.5-23.8-26.1-39.9-49.8-41.3-80.8-0.8-16.9 3-33.6 10.8-48.4 8.7-16.4 22-30 39.5-40.2 7.6-4.4 21.7-24.4 32-109.2zm81.9-56.4h-67.4c-1.2 16.6-3 36.9-5.5 57.5-6.3 51.2-14.5 85.3-25 103.2 20.7-7.4 38.4-18.8 52.9-34.2 14.3-15.1 25.5-34.2 33.2-56.6 10.6-30.7 11.8-59.4 11.8-69.9z"/>
</svg>